<svg width="105" height="38" viewBox="0 0 105 38" fill="none" xmlns="http://www.w3.org/2000/svg">
<path d="M13.4301 8.3125H90.5004C95.5743 8.31271 99.6879 12.426 99.6879 17.5C99.6879 22.574 95.5743 26.6873 90.5004 26.6875H14.2699C8.96389 26.6874 4.66252 22.3861 4.66248 17.0801C4.66248 12.2379 8.5879 8.3125 13.4301 8.3125Z" stroke="#E60012" stroke-width="2.625"/>
<path d="M10.439 17.0238C10.6256 13.8474 12.2387 12.1493 15.2783 11.9295C18.0194 12.0332 19.676 13.3477 20.2483 15.8731L16.7525 15.8607C16.7318 15.3506 16.6779 14.9318 16.5908 14.6042C16.5037 14.2724 16.3917 14.0133 16.2549 13.8267C16.1222 13.64 15.9708 13.5177 15.8008 13.4597C15.6308 13.3975 15.4566 13.3809 15.2783 13.4099C15.0046 13.4099 14.7766 13.4991 14.5941 13.6774C14.4116 13.8557 14.2665 14.1024 14.1587 14.4176C14.055 14.7327 13.9845 15.1059 13.9472 15.5372C13.914 15.9685 13.9078 16.4371 13.9285 16.943C13.9202 17.5567 13.9348 18.1082 13.9721 18.5976C14.0094 19.0869 14.0799 19.4995 14.1836 19.8354C14.2872 20.1713 14.4282 20.4263 14.6065 20.6005C14.7848 20.7746 15.0088 20.8513 15.2783 20.8306C15.4608 20.8182 15.6225 20.7746 15.7635 20.7C15.9086 20.6212 16.0372 20.5196 16.1491 20.3952C16.2611 20.2708 16.3565 20.1298 16.4353 19.9722C16.5141 19.8146 16.5804 19.6488 16.6343 19.4746C16.6882 19.2963 16.7276 19.1159 16.7525 18.9334C16.7815 18.751 16.8002 18.5747 16.8085 18.4047L20.2669 18.3674C20.1591 18.7821 20.016 19.1781 19.8377 19.5555C19.6594 19.9328 19.4459 20.2749 19.197 20.5818C18.9482 20.8845 18.6642 21.1437 18.3449 21.3593C18.0256 21.5708 17.6669 21.7222 17.2688 21.8134C15.6847 22.1783 14.1877 22.0373 12.7778 21.3904C11.372 20.7435 10.5924 19.288 10.439 17.0238ZM20.9885 18.2181C21.0963 16.9782 21.5213 16.1115 22.2636 15.6181C23.0059 15.1246 23.8974 14.8945 24.9383 14.9276H25.3986C26.5348 14.9857 27.4222 15.2884 28.0608 15.8358C28.6994 16.379 29.0623 17.1669 29.1494 18.1995C29.1784 19.4808 28.8218 20.4097 28.0795 20.9861C27.3414 21.5542 26.4415 21.8922 25.3799 22H24.901C23.5367 21.8963 22.5518 21.5397 21.9464 20.9301C21.3451 20.3288 21.0258 19.4248 20.9885 18.2181ZM25.0751 15.7922C24.2499 15.8171 23.8269 16.3562 23.8062 17.4095V19.487C23.8643 20.5154 24.2955 21.0566 25.1 21.1105C25.8962 21.0359 26.286 20.4823 26.2694 19.4497V17.4344C26.2487 16.3479 25.8506 15.8005 25.0751 15.7922ZM29.6719 12.0539H30.7293H31.314H31.9049H32.4896H31.9049H32.4896V14.6913V16.7315V17.3224V18.7842V19.3689V20.2459V21.123V22H31.0279H30.4369H29.8522H29.6719V12.0539ZM33.1179 12.0539H34.1753H34.76H35.3509H35.9356H35.3509H35.9356V14.6913V16.7315V17.3224V18.7842V19.3689V20.2459V21.123V22H34.4739H33.8829H33.2982H33.1179V12.0539ZM36.4643 18.3736C36.7712 16.1841 38.0671 15.0375 40.3519 14.9339C42.8027 15.0085 44.0861 16.18 44.2023 18.4483H43.3252H42.784H41.4343H40.8931H40.0845H39.2759C39.2385 19.9536 39.421 20.8057 39.8232 21.0048C40.2255 21.1997 40.6236 21.1748 41.0175 20.9301C41.4197 20.6855 41.5794 20.1277 41.4965 19.2569H42.5166H43.0577H43.5989H44.1401H43.5989H44.1401C43.771 20.7456 42.9955 21.6164 41.8137 21.8694C40.6319 22.1223 39.5226 22.0477 38.4859 21.6454C37.4533 21.2391 36.7816 20.3102 36.4705 18.8588L36.4643 18.3736ZM40.3893 15.6927C39.6677 15.73 39.2966 16.2878 39.2759 17.366H40.3519H40.8931H41.4343C41.426 16.3375 41.0776 15.7798 40.3893 15.6927ZM44.8056 18.3736C45.1125 16.1841 46.4084 15.0375 48.6932 14.9339C49.307 14.9546 49.844 15.0168 50.3043 15.1205C50.7687 15.2241 51.1585 15.3921 51.4737 15.6243C51.7888 15.8565 52.0314 16.1634 52.2014 16.5449C52.3715 16.9222 52.471 17.395 52.5 17.9631H51.623H51.0818H49.8564C49.8606 17.7101 49.8398 17.4613 49.7942 17.2167C49.7527 16.972 49.6843 16.7543 49.5889 16.5635C49.4936 16.3686 49.3712 16.2131 49.222 16.097C49.0727 15.9768 48.8964 15.9166 48.6932 15.9166C48.4983 15.9166 48.3304 15.9913 48.1894 16.1406C48.0526 16.2899 47.9385 16.4848 47.8473 16.7253C47.7602 16.9658 47.698 17.2374 47.6607 17.5401C47.6234 17.8428 47.6089 18.1455 47.6171 18.4483C47.6089 18.8256 47.6192 19.1781 47.6482 19.5057C47.6773 19.8291 47.7353 20.1111 47.8224 20.3516C47.9095 20.5922 48.0298 20.7829 48.1832 20.9239C48.3366 21.0607 48.5315 21.1312 48.7679 21.1354C48.9877 21.1395 49.1743 21.0939 49.3277 20.9985C49.4811 20.9032 49.6014 20.7767 49.6885 20.6191C49.7756 20.4574 49.8315 20.2749 49.8564 20.0717C49.8854 19.8685 49.8854 19.6633 49.8564 19.4559H50.8765H51.4177H51.9588H52.5H51.9588H52.5C52.4088 19.8291 52.2906 20.1526 52.1455 20.4263C52.0003 20.7 51.8303 20.9343 51.6354 21.1292C51.4405 21.3199 51.2186 21.4754 50.9698 21.5957C50.7252 21.7159 50.4536 21.8072 50.155 21.8694C48.9731 22.1223 47.8639 22.0477 46.8272 21.6454C45.7946 21.2391 45.1228 20.3102 44.8118 18.8588L44.8056 18.3736ZM54.9321 13.2482H57.7498V14.6602H58.8757H59.4417H58.8757H59.4417V15.7922H58.3159H57.7498V16.9181V17.4841V18.6162V19.1822V20.5942V21.1603V22.0062H56.624H56.058H55.4981H54.9321H55.4981H54.9321V15.7922H53.2402V14.6602H54.3661H54.9321V13.2482ZM59.8647 18.3736C60.1716 16.1841 61.4675 15.0375 63.7523 14.9339C66.2031 15.0085 67.4865 16.18 67.6027 18.4483H66.7256H66.1844H64.8347H64.2935H63.4849H62.6763C62.6389 19.9536 62.8214 20.8057 63.2236 21.0048C63.6259 21.1997 64.024 21.1748 64.4179 20.9301C64.8201 20.6855 64.9798 20.1277 64.8969 19.2569H65.917H66.4581H66.9993H67.5404H66.9993H67.5404C67.1714 20.7456 66.3959 21.6164 65.2141 21.8694C64.0323 22.1223 62.923 22.0477 61.8863 21.6454C60.8537 21.2391 60.182 20.3102 59.8709 18.8588L59.8647 18.3736ZM63.7897 15.6927C63.0681 15.73 62.697 16.2878 62.6763 17.366H63.7523H64.2935H64.8347C64.8264 16.3375 64.478 15.7798 63.7897 15.6927ZM71.1046 15.9913C71.7681 15.3444 72.5519 14.9712 73.4559 14.8716C75.6122 14.6975 76.7173 15.4895 76.7712 17.2478V17.5463V17.3971V17.2478V17.8449V17.5463V17.8449V19.3315V19.9287V20.5258V21.123V22.0187H75.5832H74.986H74.3889H73.7917H74.3889H73.7917V17.2478C73.7959 16.6216 73.3605 16.2733 72.4855 16.2028C71.8676 16.1572 71.4053 16.406 71.0984 16.9492V18.1435V18.7344V20.2272V20.8244V22.0187H69.6118H69.0146H68.4175H68.0692V15.1578H69.0146H69.6118H70.2089H70.7998H70.2089H71.1108L71.1046 15.9913ZM83.0972 11.7678H84.2666H84.845H85.4297H86.0144H85.4297H86.0144V12.9372V13.5156V14.9712V15.5559V16.4267V17.0114V18.1746V19.0516V20.2148V20.7995V22.0311H83.091L83.0847 21.7947C82.8567 21.973 82.1621 22.0415 81.001 22C79.815 21.9751 78.9442 21.5978 78.3885 20.8679C77.8328 20.1339 77.5902 19.3378 77.6607 18.4794C77.6732 17.6915 77.895 16.9762 78.3263 16.3334C78.7575 15.6906 79.5828 15.2158 80.8019 14.909C81.9589 14.8302 82.724 14.9484 83.0972 15.2635V11.7678ZM82.0086 15.6927C81.229 15.7259 80.8247 16.3293 80.7957 17.5028V19.3813C80.8579 20.5341 81.2705 21.1375 82.0335 21.1914C82.7799 21.1126 83.1469 20.7788 83.1345 20.1899V16.9119C83.1925 16.1696 82.8173 15.7632 82.0086 15.6927ZM86.5867 18.2181C86.6945 16.9782 87.1196 16.1115 87.8618 15.6181C88.6041 15.1246 89.4957 14.8945 90.5365 14.9276H90.9968C92.1331 14.9857 93.0205 15.2884 93.6591 15.8358C94.2977 16.379 94.6605 17.1669 94.7476 18.1995C94.7766 19.4808 94.42 20.4097 93.6777 20.9861C92.9396 21.5542 92.0397 21.8922 90.9782 22H90.4992C89.1349 21.8963 88.15 21.5397 87.5446 20.9301C86.9433 20.3288 86.624 19.4248 86.5867 18.2181ZM90.6734 15.7922C89.8482 15.8171 89.4252 16.3562 89.4045 17.4095V19.487C89.4625 20.5154 89.8938 21.0566 90.6983 21.1105C91.4944 21.0359 91.8842 20.4823 91.8677 19.4497V17.4344C91.8469 16.3479 91.4488 15.8005 90.6734 15.7922Z" fill="#E60012"/>
</svg>
